<svg width="2407" height="591" viewBox="0 0 2407 591" fill="none" xmlns="http://www.w3.org/2000/svg">
<path d="M268.961 360.532C348.844 267.604 354.26 192.431 275.674 99.8989C245.085 63.8814 266.896 2.64795 314.15 2.64795H549.701C577.315 2.64795 599.701 25.0337 599.701 52.648V404.648C599.701 432.262 577.315 454.648 549.701 454.648H307.109C260.66 454.648 238.681 395.756 268.961 360.532Z" fill="#333333" stroke="#1A1212"/>
<path d="M54.4131 1.37771L319.348 3.37916C335.305 3.49971 350.359 11.2421 359.372 24.4107C470.7 187.083 465.833 284.195 356.296 435.397C347.05 448.16 332.044 455.488 316.285 455.369L50.9986 453.365C23.3851 453.156 1.16913 430.602 1.37773 402.988L4.03684 50.9986C4.24544 23.3851 26.7997 1.16911 54.4131 1.37771Z" fill="#F8D55C" stroke="#333333"/>
<path d="M520.701 220.648L421.201 132.648V328.148L520.701 220.648Z" fill="#F8D55C" stroke="#F8D55C"/>
<path d="M439.255 232.041L742.14 66.1016L739.449 402.801L439.255 232.041Z" fill="#333333"/>
<circle cx="405.201" cy="233.148" r="107.5" fill="#333333"/>
<path fill-rule="evenodd" clip-rule="evenodd" d="M319.673 3.65085L54.7379 1.64941C27.1245 1.4408 4.57022 23.6568 4.36161 51.2703L1.70251 403.26C1.4939 430.874 23.7099 453.428 51.3234 453.636L316.61 455.641C332.369 455.76 347.375 448.431 356.621 435.669C381.241 401.683 400.574 370.43 414.487 340.551C469.665 335.998 513.026 289.772 513.026 233.42C513.026 178.14 471.301 132.606 417.626 126.593C404.197 95.0625 384.932 61.5568 359.696 24.6824C350.684 11.5138 335.63 3.7714 319.673 3.65085ZM417.626 126.593C413.654 126.148 409.617 125.92 405.526 125.92C346.155 125.92 298.026 174.049 298.026 233.42C298.026 292.79 346.155 340.92 405.526 340.92C408.544 340.92 411.532 340.795 414.487 340.551C448.443 267.632 450.124 202.896 417.626 126.593Z" fill="#F8D55C"/>
<path d="M54.7379 1.64941L54.7417 1.14942L54.7379 1.64941ZM319.673 3.65085L319.669 4.15084L319.673 3.65085ZM4.36161 51.2703L3.86163 51.2665L4.36161 51.2703ZM1.70251 403.26L2.20249 403.264L1.70251 403.26ZM51.3234 453.636L51.3196 454.136H51.3196L51.3234 453.636ZM316.61 455.641L316.606 456.141L316.61 455.641ZM356.621 435.669L357.026 435.962L356.621 435.669ZM359.696 24.6824L359.284 24.9648L359.696 24.6824ZM54.7341 2.14939L319.669 4.15084L319.677 3.15087L54.7417 1.14942L54.7341 2.14939ZM4.8616 51.274C5.06812 23.9367 27.3968 1.94287 54.7341 2.14939L54.7417 1.14942C26.8521 0.938729 4.07232 23.3769 3.86163 51.2665L4.8616 51.274ZM2.20249 403.264L4.8616 51.274L3.86163 51.2665L1.20252 403.256L2.20249 403.264ZM51.3271 453.137C23.9898 452.93 1.99597 430.601 2.20249 403.264L1.20252 403.256C0.99183 431.146 23.43 453.926 51.3196 454.136L51.3271 453.137ZM316.614 455.141L51.3271 453.137L51.3196 454.136L316.606 456.141L316.614 455.141ZM356.216 435.376C347.068 448.003 332.217 455.258 316.614 455.141L316.606 456.141C332.521 456.261 347.682 448.86 357.026 435.962L356.216 435.376ZM414.034 340.34C400.138 370.181 380.825 401.406 356.216 435.376L357.026 435.962C381.658 401.961 401.009 370.68 414.941 340.762L414.034 340.34ZM512.526 233.42C512.526 289.51 469.367 335.521 414.446 340.053L414.528 341.05C469.963 336.475 513.526 290.035 513.526 233.42H512.526ZM417.571 127.09C470.995 133.075 512.526 178.397 512.526 233.42H513.526C513.526 177.882 471.606 132.137 417.682 126.096L417.571 127.09ZM359.284 24.9648C384.508 61.822 403.754 95.2982 417.166 126.789L418.086 126.397C404.64 94.8268 385.356 61.2916 360.109 24.4L359.284 24.9648ZM319.669 4.15084C335.468 4.27019 350.367 11.936 359.284 24.9648L360.109 24.4C351.001 11.0916 335.791 3.27261 319.677 3.15087L319.669 4.15084ZM405.526 126.42C409.598 126.42 413.617 126.647 417.571 127.09L417.682 126.096C413.691 125.649 409.635 125.42 405.526 125.42V126.42ZM298.526 233.42C298.526 174.325 346.431 126.42 405.526 126.42V125.42C345.879 125.42 297.526 173.773 297.526 233.42H298.526ZM405.526 340.42C346.431 340.42 298.526 292.514 298.526 233.42H297.526C297.526 293.066 345.879 341.42 405.526 341.42V340.42ZM414.446 340.053C411.505 340.296 408.53 340.42 405.526 340.42V341.42C408.557 341.42 411.56 341.295 414.528 341.05L414.446 340.053ZM417.166 126.789C449.608 202.961 447.93 267.549 414.034 340.34L414.941 340.762C448.956 267.715 450.64 202.831 418.086 126.397L417.166 126.789Z" fill="#E9B632"/>
<path d="M799.595 392V134.625H838.645V355.08H966.445V392H799.595ZM1128.12 395.195H1102.56L1099.01 354.015C1093.57 366.085 1085.88 376.025 1075.94 383.835C1066.23 391.645 1053.81 395.55 1038.66 395.55C1023.52 395.55 1011.45 391.527 1002.45 383.48C993.696 375.197 989.081 364.428 988.608 351.175V243.61H1018.78V337.685C1019.26 345.022 1021.86 351.293 1026.59 356.5C1031.56 361.707 1039.14 364.665 1049.31 365.375C1056.41 365.375 1062.92 364.192 1068.84 361.825C1074.75 359.222 1079.84 355.79 1084.1 351.53C1088.36 347.27 1091.68 342.182 1094.04 336.265C1096.41 330.348 1097.59 323.84 1097.59 316.74V243.61H1128.12V395.195ZM1170.65 243.61H1197.27C1197.75 250.947 1198.1 257.692 1198.34 263.845C1198.81 269.762 1199.28 275.678 1199.76 281.595C1205.2 268.815 1212.3 258.757 1221.06 251.42C1230.05 243.847 1242 239.942 1256.91 239.705C1271.35 239.705 1282.95 243.373 1291.7 250.71C1300.46 258.047 1305.55 267.632 1306.97 279.465C1312.88 267.395 1320.1 257.81 1328.62 250.71C1337.38 243.61 1349.09 239.942 1363.77 239.705C1379.15 239.705 1391.22 243.847 1399.98 252.13C1408.97 260.413 1413.7 271.063 1414.18 284.08V392H1383.65V297.925C1383.17 290.352 1380.57 283.962 1375.84 278.755C1371.34 273.312 1363.89 270.353 1353.47 269.88C1339.27 269.88 1328.15 274.495 1320.1 283.725C1312.06 292.718 1307.8 304.315 1307.32 318.515V392H1277.15V297.925C1276.67 290.352 1273.95 283.962 1268.98 278.755C1264.25 273.312 1256.91 270.353 1246.97 269.88C1239.87 269.88 1233.48 271.182 1227.8 273.785C1222.12 276.152 1217.27 279.465 1213.25 283.725C1209.22 287.985 1206.15 293.073 1204.02 298.99C1201.89 304.907 1200.82 311.415 1200.82 318.515V392H1170.65V243.61ZM1451.37 186.81C1451.37 181.13 1453.38 176.397 1457.4 172.61C1461.66 168.823 1466.16 166.93 1470.89 166.93C1475.63 166.93 1480 168.823 1484.03 172.61C1488.05 176.397 1490.06 181.13 1490.06 186.81C1490.06 192.49 1488.05 197.223 1484.03 201.01C1480 204.56 1475.63 206.335 1470.89 206.335C1466.16 206.335 1461.66 204.56 1457.4 201.01C1453.38 197.223 1451.37 192.49 1451.37 186.81ZM1485.45 392H1455.27V243.61H1485.45V392ZM1528.07 243.61H1554.7C1555.17 250.947 1555.53 257.692 1555.76 263.845C1556.24 269.762 1556.71 275.678 1557.18 281.595C1562.63 268.815 1570.32 258.638 1580.26 251.065C1590.44 243.492 1602.86 239.705 1617.53 239.705C1632.44 239.705 1644.4 243.847 1653.39 252.13C1662.38 260.413 1667.12 271.063 1667.59 284.08V392H1637.06V297.925C1636.59 290.352 1633.98 283.962 1629.25 278.755C1624.52 273.312 1617.06 270.353 1606.88 269.88C1599.78 269.88 1593.28 271.182 1587.36 273.785C1581.44 276.152 1576.35 279.465 1572.09 283.725C1567.83 287.985 1564.4 293.073 1561.8 298.99C1559.43 304.907 1558.25 311.415 1558.25 318.515V392H1528.07V243.61ZM1698.4 319.225C1698.4 308.338 1700.41 298.162 1704.43 288.695C1708.69 278.992 1714.37 270.59 1721.47 263.49C1728.57 256.153 1736.74 250.355 1745.97 246.095C1755.44 241.835 1765.49 239.705 1776.14 239.705C1783.24 239.705 1789.75 240.652 1795.67 242.545C1801.59 244.202 1806.67 246.332 1810.93 248.935C1815.19 251.538 1818.63 254.26 1821.23 257.1C1823.83 259.94 1825.61 262.425 1826.55 264.555L1827.97 243.61H1857.08V392H1826.55V373.185C1825.37 375.078 1823.48 377.327 1820.87 379.93C1818.27 382.533 1814.84 385.018 1810.58 387.385C1806.56 389.515 1801.7 391.408 1796.02 393.065C1790.34 394.722 1783.84 395.55 1776.5 395.55C1765.14 395.55 1754.61 393.538 1744.9 389.515C1735.44 385.255 1727.27 379.693 1720.41 372.83C1713.55 365.73 1708.1 357.565 1704.08 348.335C1700.29 339.105 1698.4 329.402 1698.4 319.225ZM1728.93 317.45C1728.93 324.313 1730.11 330.703 1732.48 336.62C1735.08 342.537 1738.51 347.625 1742.77 351.885C1747.03 356.145 1752.12 359.577 1758.04 362.18C1763.96 364.547 1770.46 365.73 1777.56 365.73C1784.66 365.73 1791.17 364.547 1797.09 362.18C1803.24 359.577 1808.45 356.145 1812.71 351.885C1817.21 347.388 1820.64 342.3 1823 336.62C1825.37 330.703 1826.55 324.313 1826.55 317.45C1826.55 310.587 1825.37 304.315 1823 298.635C1820.64 292.718 1817.21 287.63 1812.71 283.37C1808.45 279.11 1803.24 275.797 1797.09 273.43C1791.17 270.827 1784.66 269.525 1777.56 269.525C1770.46 269.525 1763.96 270.827 1758.04 273.43C1752.12 275.797 1747.03 279.11 1742.77 283.37C1738.51 287.63 1735.08 292.718 1732.48 298.635C1730.11 304.315 1728.93 310.587 1728.93 317.45ZM1981.37 278.755C1974.74 278.755 1968.35 279.702 1962.2 281.595C1956.04 283.252 1950.48 285.855 1945.51 289.405C1940.78 292.955 1936.99 297.452 1934.15 302.895C1931.31 308.102 1929.89 314.137 1929.89 321V392H1899.72V243.61H1926.34C1926.81 250.947 1927.17 257.692 1927.41 263.845C1927.88 269.762 1928.35 275.678 1928.83 281.595C1931.9 275.205 1935.93 269.407 1940.9 264.2C1945.87 258.993 1951.19 254.615 1956.87 251.065C1962.55 247.515 1968.11 244.793 1973.56 242.9C1979 240.77 1983.85 239.705 1988.11 239.705L1981.37 278.755Z" fill="#333333"/>
<circle cx="2068" cy="133" r="65" fill="#F8D55C"/>
</svg>
